<?xml version="1.0" encoding="UTF-8" standalone="no"?>
<!-- Created with Inkscape (http://www.inkscape.org/) -->

<svg
   xmlns:dc="http://purl.org/dc/elements/1.1/"
   xmlns:cc="http://creativecommons.org/ns#"
   xmlns:rdf="http://www.w3.org/1999/02/22-rdf-syntax-ns#"
   xmlns:svg="http://www.w3.org/2000/svg"
   xmlns="http://www.w3.org/2000/svg"
   xmlns:sodipodi="http://sodipodi.sourceforge.net/DTD/sodipodi-0.dtd"
   xmlns:inkscape="http://www.inkscape.org/namespaces/inkscape"
   width="4.3902864cm"
   height="5.0800419cm"
   viewBox="0 0 43.902867 50.800417"
   version="1.1"
   id="svg8"
   inkscape:version="0.92.4 (5da689c313, 2019-01-14)"
   sodipodi:docname="logo.svg"
   inkscape:export-filename="C:\Users\RegularP\Documents\PROJECTS\R_packages\NAFOdown\man\figures\logo.png"
   inkscape:export-xdpi="300.26743"
   inkscape:export-ydpi="300.26743">
  <defs
     id="defs2" />
  <sodipodi:namedview
     id="base"
     pagecolor="#ffffff"
     bordercolor="#666666"
     borderopacity="1.0"
     inkscape:pageopacity="0.0"
     inkscape:pageshadow="2"
     inkscape:zoom="2.8284271"
     inkscape:cx="-35.274781"
     inkscape:cy="96.526607"
     inkscape:document-units="mm"
     inkscape:current-layer="g3728"
     showgrid="false"
     fit-margin-top="0"
     fit-margin-left="0"
     fit-margin-right="0"
     fit-margin-bottom="0"
     inkscape:window-width="1920"
     inkscape:window-height="1001"
     inkscape:window-x="-9"
     inkscape:window-y="-9"
     inkscape:window-maximized="1"
     units="cm"
     inkscape:pagecheckerboard="true" />
  <metadata
     id="metadata5">
    <rdf:RDF>
      <cc:Work
         rdf:about="">
        <dc:format>image/svg+xml</dc:format>
        <dc:type
           rdf:resource="http://purl.org/dc/dcmitype/StillImage" />
        <dc:title></dc:title>
      </cc:Work>
    </rdf:RDF>
  </metadata>
  <g
     inkscape:label="Layer 1"
     inkscape:groupmode="layer"
     id="layer1"
     transform="translate(-44.605694,-159.54941)">
    <g
       id="g4647">
      <g
         id="g3728">
        <g
           id="g4578">
          <g
             transform="matrix(1.0278511,-0.00219803,0.00218443,1.006578,62.143221,-2.6833406)"
             id="g4568">
            <ellipse
               ry="19.415482"
               rx="18.878199"
               cy="186.3912"
               cx="6.9717383"
               id="path3717"
               style="fill:#ffffff;fill-opacity:1;stroke:none;stroke-width:0.12484427;stroke-miterlimit:4;stroke-dasharray:none;stroke-opacity:1"
               inkscape:export-filename="C:\Users\RegularP\Documents\PROJECTS\R_packages\NAFOdown\SCR\short_presentation\logo.png"
               inkscape:export-xdpi="96"
               inkscape:export-ydpi="96"
               transform="matrix(0.99985333,0.01712676,-0.01624902,0.99986798,0,0)" />
            <path
               style="fill:#0677bb;fill-opacity:1;stroke-width:0.22229707"
               d="m -15.286193,197.75226 0.05095,-22.71294 19.1846404,-11.31118 19.1337036,11.40177 -0.05094,22.71295 c -19.1846486,11.31117 0,0 -19.1846486,11.31117 z m 21.9400764,6.78407 c 1.658186,-0.2755 3.4678486,-0.88268 3.266814,-1.09608 -0.05932,-0.063 -0.467822,0.0327 -0.907786,0.21268 -0.949011,0.38813 -3.932256,0.39093 -4.956287,0.005 -0.531598,-0.20053 -0.943987,-0.19708 -1.730228,0.0145 -1.323781,0.35618 -3.412645,0.27195 -4.596903,-0.18536 -0.509701,-0.19683 -0.928124,-0.27212 -0.929828,-0.16732 -0.0026,0.15748 1.907564,0.79618 3.81913697,1.27702 0.93693803,0.23569 4.46651303,0.20056 6.03508103,-0.06 z m -10.866205,-3.58987 c 0.456811,-0.29923 0.906704,-0.54233 0.999771,-0.54022 0.09307,0.002 0.65071,0.2651 1.239216,0.58441 1.36898797,0.74279 2.47533297,0.75561 4.083931,0.0473 l 1.278574,-0.56297 0.686407,0.53943 c 0.970088,0.76236 3.179774,0.80138 4.663858,0.0824 l 1.050525,-0.50897 0.9249526,0.46724 c 0.508724,0.25698 1.328516,0.53982 1.821766,0.62854 0.774869,0.13937 0.999651,0.077 1.653124,-0.45907 1.514807,-1.24252 1.630014,-1.37386 1.298527,-1.48037 -1.942435,-0.62411 -2.172299,-0.64741 -3.163594,-0.32072 -1.251654,0.4125 -3.2306156,0.39011 -4.5789486,-0.0518 -0.905076,-0.29664 -1.12986,-0.29754 -1.839422,-0.007 -0.633846,0.25923 -1.282569,0.29116 -3.005161,0.14788 -3.18902203,-0.26525 -3.15956803,-0.26535 -4.764458,0.0176 -1.274832,0.22479 -1.666825,0.20553 -2.932971,-0.14415 -1.232931,-0.34051 -1.646449,-0.36444 -2.644396,-0.15304 -0.65061,0.13783 -1.184129,0.32459 -1.185599,0.41503 -0.0024,0.14682 0.459761,0.57584 1.83737,1.70571 0.553818,0.45423 1.486874,0.30687 2.576527,-0.40691 z m -2.959528,-4.30316 0.87267,-0.50915 1.021182,0.56633 c 1.460756,0.81011 3.031096,0.83317 4.57352497,0.0671 1.031007,-0.51203 1.239268,-0.54903 1.540404,-0.27363 1.06192303,0.97118 3.19193303,1.12622 4.75387403,0.34603 1.324789,-0.66173 1.297825,-0.66147 2.143021,-0.0211 0.987845,0.74844 3.1410546,0.76641 4.5880506,0.0383 1.009509,-0.50797 1.082954,-0.5142 1.792042,-0.15202 1.059201,0.54101 3.372973,0.9824 3.70715,0.7072 0.147552,-0.12151 0.497209,-0.62325 0.777013,-1.11498 l 0.508741,-0.89406 -1.145854,-0.37082 c -1.011703,-0.3274 -1.262972,-0.33473 -2.146286,-0.0626 -1.52192,0.46891 -2.788728,0.51145 -4.223461,0.1418 -1.13077,-0.29132 -1.469964,-0.29366 -2.5828556,-0.0179 -1.589072,0.39382 -2.653516,0.38316 -4.145377,-0.0416 -0.983477,-0.27997 -1.310972,-0.28558 -2.166599,-0.0371 -1.312606,0.38117 -3.50012603,0.33556 -4.632606,-0.0966 -0.791964,-0.30222 -0.992905,-0.30371 -1.704423,-0.0127 -1.024809,0.41914 -3.652629,0.39931 -4.797223,-0.0362 -0.767927,-0.29218 -1.016125,-0.28991 -2.0744354,0.019 -0.661176,0.19301 -1.233503,0.4424 -1.271837,0.55422 -0.03833,0.11181 0.237378,0.59904 0.612697,1.08273 0.678839,0.87484 0.688765,0.87876 1.9051584,0.75307 0.672517,-0.0695 1.615461,-0.35546 2.095429,-0.63549 z m -2.9862264,-4.462 c 0.6668044,-0.40747 0.9140384,-0.45922 1.1922474,-0.24957 1.495689,1.12714 3.544047,1.30988 5.164266,0.46072 l 1.050883,-0.55077 1.182827,0.61945 c 1.39987597,0.73312 2.653725,0.70487 4.333311,-0.0976 0.849853,-0.40605 1.108176,-0.44551 1.410795,-0.21554 0.553555,0.42066 1.376028,0.7734 2.141324,0.91837 0.786707,0.14902 2.986638,-0.40817 3.45747,-0.87569 0.2773616,-0.27541 0.4296236,-0.25426 1.1537296,0.1603 0.45881,0.26267 1.393236,0.5393 2.076498,0.61472 1.02797,0.11348 1.460169,0.0392 2.505121,-0.43045 l 1.262819,-0.56758 1.014464,0.44645 c 1.458259,0.64175 2.13069,0.76784 2.394102,0.44891 0.252501,-0.30572 0.814458,-2.17917 0.692494,-2.30864 -0.04255,-0.0452 -0.718122,0.11416 -1.501276,0.35406 -1.135285,0.34776 -1.712419,0.3994 -2.84721,0.25475 -1.783988,-0.22739 -2.553655,-0.23827 -4.553722,-0.0644 -1.031783,0.0897 -2.0393346,0.0338 -2.8539086,-0.15828 -1.073726,-0.25322 -1.469305,-0.24469 -2.687102,0.058 -1.436673,0.35707 -3.349028,0.27667 -4.483351,-0.18848 -0.322703,-0.13233 -0.796243,-0.0997 -1.35243503,0.0931 -1.157194,0.40126 -3.51613797,0.34956 -4.74513497,-0.104 -0.802922,-0.29631 -1.105101,-0.31872 -1.498556,-0.11113 -0.77579,0.40932 -3.891047,0.45709 -5.0276694,0.0771 -0.768552,-0.25694 -1.170925,-0.2763 -1.85075,-0.0891 -1.036153,0.28537 -1.130186,0.47915 -0.731322,1.50709 0.297405,0.76647 0.323936,0.77988 1.281263,0.64745 0.537665,-0.0744 1.356134,-0.36656 1.818823,-0.6493 z m -2.233329,-4.24858 c 0.74766,-0.38445 0.972587,-0.36196 1.80796,0.18077 0.391005,0.25404 0.7816124,0.46348 0.8680134,0.46542 0.144135,0.003 -0.9364094,-2.29523 -1.3391344,-2.84853 -0.228329,-0.31371 -1.677732,-3.45783 -1.674882,-3.63325 0.0012,-0.0747 1.67937,-0.0486 3.7292384,0.0579 l 3.727027,0.19376 0.0023,-0.61976 0.0023,-0.61975 -0.286176,0.50902 c -0.157399,0.27997 -0.351066,0.44015 -0.430373,0.35597 -0.0793,-0.0842 0.05487,-0.43018 0.298178,-0.76887 0.243301,-0.3387 0.444171,-0.72685 0.446376,-0.86256 0.0092,-0.56522 0.627607,-0.10887 1.842989,1.35997 0.710145,0.85824 1.63418,1.71959 2.053405,1.91411 0.51190997,0.23752 2.938709,0.55858 7.389607,0.97763 4.9397176,0.46507 6.6261986,0.69658 6.6227446,0.90912 -0.0058,0.35964 0.778467,0.51357 3.937044,0.7727 l 2.519995,0.20675 -0.03875,0.8441 c -0.02131,0.46426 -0.0052,0.84468 0.03581,0.84539 0.04101,7e-4 0.393212,-0.19028 0.782679,-0.42439 0.549663,-0.33042 0.804702,-0.37045 1.139756,-0.17891 0.419078,0.23959 0.428627,0.19184 0.328103,-1.64035 -0.281132,-5.12398 -2.328693,-9.52262 -6.011454,-12.91402 -1.573943,-1.44942 -1.846161,-1.64656 -3.520442,-2.54949 -2.6610936,-1.43511 -4.7013116,-1.96555 -7.7820766,-2.02326 -3.88630903,-0.0581 -7.462335,1.30689 -10.393937,3.51232 -4.3415384,3.26614 -7.2697274,8.37552 -7.6992844,13.43565 -0.09053,1.32042 -0.110154,2.55403 -0.04349,2.74135 0.131586,0.37042 0.712832,0.3019 1.68659,-0.19881 z M 15.30173,185.4728 c -2.185468,-0.16987 -2.581984,-0.41606 -1.846456,-1.14642 0.217223,-0.21569 0.341675,-0.77174 0.354903,-1.58571 l 0.02037,-1.25353 -0.671902,0.8389 c -0.369543,0.46139 -0.674344,0.98938 -0.677334,1.17331 -0.0045,0.27601 -0.06379,0.28299 -0.339536,0.0399 -0.228918,-0.20177 -0.287743,-0.49514 -0.186842,-0.93187 0.12173,-0.52692 0.07453,-0.63865 -0.272334,-0.64459 -0.790043,-0.0135 -0.746542,-0.35056 0.07418,-0.57476 0.732265,-0.20003 0.873343,-0.36299 1.315049,-1.51904 0.27213,-0.71223 0.665087,-1.38902 0.873238,-1.50397 0.315364,-0.17416 0.384223,-0.56382 0.413044,-2.33731 0.02062,-1.26872 0.123181,-2.12678 0.253948,-2.12454 0.130898,0.002 0.205293,0.86942 0.184477,2.15032 -0.02763,1.70029 0.03308,2.17468 0.29205,2.28182 0.179816,0.0744 0.325489,0.22425 0.323722,0.333 -0.0018,0.10875 0.293132,0.71119 0.655332,1.33876 0.619307,1.07304 0.712966,1.14216 1.571955,1.16012 0.670556,0.014 0.824985,0.0756 0.580825,0.23177 -0.182922,0.11697 -0.554718,0.21043 -0.826207,0.20767 -0.271489,-0.003 -0.494405,0.0434 -0.495367,0.10261 -9.62e-4,0.0592 0.25439,0.66722 0.567447,1.35118 0.379052,0.82815 0.720069,1.26837 1.020839,1.3178 0.328023,0.0539 0.451678,0.24379 0.451773,0.69373 1.08e-4,0.54945 -0.07957,0.61813 -0.70471,0.60742 -0.387658,-0.007 -0.752565,-0.1396 -0.810903,-0.29548 -0.08486,-0.22672 -0.110446,-0.22716 -0.127962,-0.002 -0.01205,0.15467 -0.194335,0.25951 -0.405097,0.23298 -0.210762,-0.0265 -0.925591,-0.0904 -1.588505,-0.14193 z m 0.669356,-1.7688 c 0.15669,0.20055 0.468137,0.36777 0.692107,0.37161 0.391226,0.007 0.392811,-0.0233 0.04041,-0.7639 -0.201751,-0.42398 -0.428273,-0.73436 -0.503379,-0.68975 -0.246238,0.14627 -0.799025,-0.68724 -1.214569,-1.83139 -0.454657,-1.25181 -0.828492,-1.5555 -0.949761,-0.77154 -0.05287,0.34183 0.068,0.59967 0.354773,0.75677 0.347678,0.19047 0.4441,0.50751 0.480457,1.57973 0.04416,1.30226 0.431043,2.05053 0.689305,1.33319 0.113286,-0.31465 0.15407,-0.31313 0.410661,0.0153 z m -0.45765,-2.94882 c -0.294553,-0.60569 -0.54134,-1.02803 -0.548415,-0.93854 -0.02009,0.25405 0.904017,2.21847 0.999162,2.12399 0.04664,-0.0463 -0.156193,-0.57977 -0.450747,-1.18545 z m -8.5261546,3.26583 c -1.626215,-0.18429 -4.11663,-0.42741 -5.534255,-0.54025 -3.116215,-0.24805 -3.68815,-0.5487 -3.113044,-1.6364 0.194027,-0.36696 0.355262,-0.78303 0.358308,-0.9246 0.0076,-0.35851 0.39333997,-0.46923 2.14638497,-0.61631 1.50944403,-0.12664 1.52839503,-0.13648 2.02471803,-1.05128 0.395096,-0.72821 0.487772,-1.19883 0.438389,-2.22616 -0.04178,-0.86922 0.01613,-1.27476 0.173975,-1.21867 0.130127,0.0462 0.262304,0.40616 0.293722,0.79983 0.0592,0.74176 0.167284,0.83415 0.633356,0.54134 0.188188,-0.11823 0.262973,-0.69178 0.237138,-1.81869 -0.02739,-1.19454 0.04121,-1.67556 0.250132,-1.75378 0.158329,-0.0593 0.290164,-0.24897 0.292968,-0.42151 0.0063,-0.38529 0.269694,-0.39941 0.614921,-0.0329 0.38651,0.41028 0.308787,0.60874 -0.183138,0.46763 -0.398521,-0.11432 -0.438612,-0.0144 -0.457367,1.13961 -0.0204,1.25533 -0.01558,1.26501 0.63753,1.27619 0.361943,0.006 0.656435,0.11262 0.654422,0.23649 -0.002,0.12386 -0.102372,0.22351 -0.223021,0.22145 -0.120649,-0.002 -0.222532,0.19139 -0.226408,0.42991 -0.0088,0.54164 1.591984,4.12382 1.947412,4.35785 0.14405,0.0948 0.740707,0.24843 1.325907,0.3413 0.8510286,0.13505 1.1022566,0.2776 1.2551636,0.71219 0.105144,0.29884 0.319702,0.54554 0.476794,0.54823 0.247136,0.004 1.459994,1.26409 1.455959,1.51238 -0.0025,0.15498 -2.413532,0.004 -5.4799666,-0.3438 z m 2.875101,-1.39149 c -0.17928,-0.10732 -0.71969,-0.27096 -1.200911,-0.36364 -1.383524,-0.26648 -1.63763,-0.3879 -1.658744,-0.79261 -0.01091,-0.20866 -0.08913,-0.0764 -0.17387,0.29379 -0.140467,0.61372 -0.09575,0.68648 0.506269,0.82379 1.035683,0.23622 2.9050586,0.26482 2.527256,0.0386 z m -6.840301,-0.45395 3.135532,0.0306 -0.05495,-0.56412 c -0.04821,-0.49492 -0.175894,-0.57547 -1.040849,-0.65665 -1.420884,-0.13334 -5.79082603,0.3172 -5.98591803,0.61716 -0.34341397,0.52799 -0.19676397,0.8521 0.314478,0.695 0.272897,-0.0839 1.90716603,-0.13872 3.63170803,-0.12192 z m -3.23896903,-0.41656 c 0.002,-0.12386 0.25627,-0.22088 0.565011,-0.21559 0.318372,0.005 0.501083,0.10609 0.422117,0.2325 -0.07658,0.12259 -0.330835,0.2196 -0.565011,0.21559 -0.234176,-0.004 -0.42413,-0.10863 -0.422117,-0.2325 z m 4.82777103,-0.0299 c 0.003,-0.18579 0.19709,-0.33453 0.431266,-0.33052 0.551716,0.009 0.763345,0.37671 0.314022,0.54495 -0.551143,0.20638 -0.751191,0.14882 -0.745288,-0.21443 z m -3.288583,-0.16897 c 0.002,-0.12386 0.201082,-0.22182 0.44238,-0.21769 0.241297,0.004 0.437073,0.10886 0.43506,0.23272 -0.002,0.12387 -0.201083,0.22183 -0.44238,0.2177 -0.241297,-0.004 -0.437073,-0.10886 -0.43506,-0.23273 z m 1.645207,0.0282 c 0.07658,-0.12259 0.33083,-0.21961 0.565007,-0.2156 0.234176,0.004 0.424129,0.10864 0.422116,0.2325 -0.002,0.12387 -0.256265,0.22089 -0.565007,0.2156 -0.318376,-0.005 -0.501083,-0.10609 -0.422116,-0.2325 z m 1.374938,-1.83495 c -0.06822,-0.27994 -0.121675,-0.73703 -0.118793,-1.01576 0.0072,-0.6994 -0.343021,-0.64167 -0.619013,0.10203 -0.125648,0.33858 -0.301346,0.79174 -0.390441,1.00704 -0.134354,0.32467 -0.04134,0.39352 0.545145,0.40357 0.626277,0.0107 0.692954,-0.0461 0.583102,-0.49688 z m 2.164237,0.14971 c -0.08205,-0.21823 -0.248859,-0.69562 -0.370684,-1.06086 -0.200695,-0.6017 -0.237368,-0.62222 -0.390384,-0.21838 -0.281176,0.74207 -0.02059,1.66008 0.473629,1.66854 0.328858,0.006 0.399798,-0.0905 0.287439,-0.3893 z m -1.268794,-0.81019 c -0.05834,-0.15587 -0.110183,-0.03 -0.115215,0.27962 -0.005,0.30966 0.04269,0.4372 0.106065,0.28341 0.06337,-0.15379 0.06749,-0.40715 0.0091,-0.56303 z m 0.323856,-1.86624 c 0.0053,-0.32686 -0.08656,-0.5177 -0.212257,-0.44088 -0.121893,0.0745 -0.224823,0.33213 -0.22873,0.57255 -0.0039,0.24042 0.09161,0.43882 0.21226,0.44089 0.120646,0.002 0.223576,-0.25559 0.228727,-0.57256 z m -14.828458,5.85643 c -0.0421,-0.0391 -0.544306,-0.1489 -1.1160004,-0.24411 -0.846808,-0.14103 -1.040463,-0.11024 -1.044955,0.16616 -0.004,0.24498 0.283786,0.36332 1.035335,0.42577 0.8848524,0.0735 1.4062204,-0.0876 1.1256204,-0.34782 z m 5.548584,-1.14685 c -0.754602,-0.74829 -0.978973,-0.84258 -1.007439,-0.42337 -0.04381,0.64503 0.358704,1.07619 1.015181,1.08743 l 0.673565,0.0115 z"
               id="path4555"
               inkscape:connector-curvature="0"
               sodipodi:nodetypes="ccccccccsccscscccccccsccccscccccsccscccccccsccsccccccccccccccsscccccccscssccsccccscccccccccccccccccccsccccccssscsscccsccscccsccccccsccsccscccssscsscccssscscccccssccccccccsccscsscssscscscsccssssscccsscccccsccccccccccsscsssscsssssscssscccscsccccsccsccscsssccsccscscs" />
            <text
               xml:space="preserve"
               style="font-style:normal;font-weight:normal;font-size:2.66343355px;line-height:1.66464591px;font-family:sans-serif;letter-spacing:0px;word-spacing:0px;fill:#ffffff;fill-opacity:1;stroke:none;stroke-width:0.06658583"
               x="1.3560368"
               y="186.16318"
               id="text4575"
               inkscape:transform-center-x="-0.1347387"
               inkscape:transform-center-y="0.42130453"
               transform="matrix(0.985761,0.04930315,-0.04802279,1.0120428,0,0)"><tspan
                 sodipodi:role="line"
                 id="tspan4573"
                 x="1.3560368"
                 y="186.16318"
                 style="font-size:4.97174311px;fill:#ffffff;fill-opacity:1;stroke-width:0.06658583"><tspan
                   id="tspan835"
                   style="font-style:normal;font-variant:normal;font-weight:normal;font-stretch:normal;font-family:'Times New Roman';-inkscape-font-specification:'Times New Roman, ';stroke-width:0.06658583">NAFO</tspan><tspan
                   id="tspan839"
                   style="font-style:normal;font-variant:normal;font-weight:normal;font-stretch:normal;font-family:'Tw Cen MT';-inkscape-font-specification:'Tw Cen MT';stroke-width:0.06658583">down</tspan></tspan></text>
          </g>
          <path
             transform="matrix(0.36639855,0.00542308,-0.00542134,0.36725106,28.381359,132.51695)"
             inkscape:transform-center-y="2.4759755e-05"
             inkscape:transform-center-x="2.2100059e-06"
             d="M 163.56172,173.18287 107.22454,206.79846 49.943988,174.81682 49.000627,109.21959 105.33781,75.604004 162.61836,107.58564 Z"
             inkscape:randomized="0"
             inkscape:rounded="0"
             inkscape:flatsided="true"
             sodipodi:arg2="1.0328174"
             sodipodi:arg1="0.50921865"
             sodipodi:r2="58.661598"
             sodipodi:r1="65.604012"
             sodipodi:cy="141.20123"
             sodipodi:cx="106.28117"
             sodipodi:sides="6"
             id="path4563"
             style="fill:none;fill-opacity:1;stroke:#1a335c;stroke-width:6.1514163;stroke-miterlimit:4;stroke-dasharray:none;stroke-opacity:1"
             sodipodi:type="star" />
        </g>
      </g>
    </g>
  </g>
</svg>
